{
    "asset": {
        "generator": "Noesis",
        "version": "2.0"
    },
    "scene": 0,
    "scenes": [
        {
            "nodes": [
                0
            ]
        }
    ],
    "nodes": [
        {
            "name": "mesh0_noesis_meshnode_0000",
            "translation": [
                0.0,
                0.0,
                0.0
            ],
            "rotation": [
                0.0,
                0.0,
                0.0,
                1.0
            ],
            "scale": [
                1.0,
                1.0,
                1.0
            ],
            "mesh": 0
        }
    ],
    "meshes": [
        {
            "primitives": [
                {
                    "attributes": {
                        "POSITION": 1,
                        "NORMAL": 2,
                        "TANGENT": 3,
                        "TEXCOORD_0": 4
                    },
                    "indices": 0,
                    "material": 0,
                    "mode": 4
                }
            ],
            "name": "mesh0"
        }
    ],
    "materials": [
        {
            "pbrMetallicRoughness": {
                "baseColorTexture": {
                    "index": 0
                },
                "baseColorFactor": [
                    0.800000011920928955078125,
                    0.800000011920928955078125,
                    0.800000011920928955078125,
                    1.0
                ],
                "metallicFactor": 0.0
            },
            "name": "RandomMaterial.012"
        }
    ],
    "textures": [
        {
            "sampler": 0,
            "source": 0
        }
    ],
    "images": [
        {
            "uri": "Spoon0_tex00.png"
        }
    ],
    "samplers": [
        {
            "magFilter": 9729,
            "minFilter": 9729,
            "wrapS": 10497,
            "wrapT": 10497
        }
    ],
    "accessors": [
        {
            "bufferView": 0,
            "byteOffset": 0,
            "componentType": 5123,
            "count": 21528,
            "max": [
                21309
            ],
            "min": [
                0
            ],
            "type": "SCALAR"
        },
        {
            "bufferView": 1,
            "byteOffset": 0,
            "componentType": 5126,
            "count": 21310,
            "max": [
                0.13199500739574432373046875,
                0.07051099836826324462890625,
                1.0
            ],
            "min": [
                -0.13199500739574432373046875,
                -0.084523998200893402099609375,
                -0.21462599933147430419921875
            ],
            "type": "VEC3"
        },
        {
            "bufferView": 2,
            "byteOffset": 0,
            "componentType": 5126,
            "count": 21310,
            "max": [
                1.0,
                0.99989998340606689453125,
                0.992600023746490478515625
            ],
            "min": [
                -1.0,
                -1.0,
                -0.99639999866485595703125
            ],
            "type": "VEC3"
        },
        {
            "bufferView": 3,
            "byteOffset": 0,
            "componentType": 5126,
            "count": 21310,
            "max": [
                0.997530758380889892578125,
                0.99963223934173583984375,
                0.98655235767364501953125,
                1.0
            ],
            "min": [
                -0.9997310638427734375,
                -0.99999797344207763671875,
                -0.792183399200439453125,
                1.0
            ],
            "type": "VEC4"
        },
        {
            "bufferView": 4,
            "byteOffset": 0,
            "componentType": 5126,
            "count": 21310,
            "max": [
                0.67897498607635498046875,
                1.0
            ],
            "min": [
                0.0,
                0.0
            ],
            "type": "VEC2"
        }
    ],
    "bufferViews": [
        {
            "buffer": 0,
            "byteOffset": 0,
            "byteLength": 43056,
            "target": 34963
        },
        {
            "buffer": 0,
            "byteOffset": 43056,
            "byteLength": 255720,
            "byteStride": 12,
            "target": 34962
        },
        {
            "buffer": 0,
            "byteOffset": 298776,
            "byteLength": 255720,
            "byteStride": 12,
            "target": 34962
        },
        {
            "buffer": 0,
            "byteOffset": 554496,
            "byteLength": 340960,
            "byteStride": 16,
            "target": 34962
        },
        {
            "buffer": 0,
            "byteOffset": 895456,
            "byteLength": 170480,
            "byteStride": 8,
            "target": 34962
        }
    ],
    "buffers": [
        {
            "byteLength": 1065936,
            "uri": "Spoon0.bin"
        }
    ]
}
