{
    "asset": {
        "generator": "Noesis",
        "version": "2.0"
    },
    "scene": 0,
    "scenes": [
        {
            "nodes": [
                0,
                1
            ]
        }
    ],
    "nodes": [
        {
            "name": "Sphere_noesis_meshnode_0000",
            "translation": [
                0.0,
                0.0,
                0.0
            ],
            "rotation": [
                0.0,
                0.0,
                0.0,
                1.0
            ],
            "scale": [
                1.0,
                1.0,
                1.0
            ],
            "mesh": 0,
            "skin": 0
        },
        {
            "name": "Sphere",
            "translation": [
                0.0,
                0.0,
                0.0
            ],
            "rotation": [
                -0.707106769084930419921875,
                0.0,
                0.0,
                0.707106769084930419921875
            ],
            "scale": [
                100.0,
                100.0,
                100.0
            ]
        }
    ],
    "meshes": [
        {
            "primitives": [
                {
                    "attributes": {
                        "POSITION": 1,
                        "NORMAL": 2,
                        "TANGENT": 3,
                        "TEXCOORD_0": 4,
                        "COLOR_0": 5,
                        "JOINTS_0": 6,
                        "WEIGHTS_0": 7
                    },
                    "indices": 0,
                    "material": 0,
                    "mode": 4
                }
            ],
            "name": "Sphere"
        }
    ],
    "skins": [
        {
            "inverseBindMatrices": 8,
            "joints": [
                1
            ]
        }
    ],
    "materials": [
        {
            "pbrMetallicRoughness": {
                "metallicFactor": 0.0
            },
            "name": "RandomMaterial.010"
        }
    ],
    "accessors": [
        {
            "bufferView": 0,
            "byteOffset": 0,
            "componentType": 5123,
            "count": 11520,
            "max": [
                2076
            ],
            "min": [
                0
            ],
            "type": "SCALAR"
        },
        {
            "bufferView": 1,
            "byteOffset": 0,
            "componentType": 5126,
            "count": 2077,
            "max": [
                99.999969482421875,
                100.0,
                99.99993896484375
            ],
            "min": [
                -99.999908447265625,
                -100.0,
                -99.9998779296875
            ],
            "type": "VEC3"
        },
        {
            "bufferView": 2,
            "byteOffset": 0,
            "componentType": 5126,
            "count": 2077,
            "max": [
                1.0,
                1.0,
                1.0
            ],
            "min": [
                -1.0,
                -1.0,
                -1.0
            ],
            "type": "VEC3"
        },
        {
            "bufferView": 3,
            "byteOffset": 0,
            "componentType": 5126,
            "count": 2077,
            "max": [
                1.0,
                0.049125917255878448486328125,
                1.0,
                -1.0
            ],
            "min": [
                -1.0,
                -0.0491260178387165069580078125,
                -1.0,
                -1.0
            ],
            "type": "VEC4"
        },
        {
            "bufferView": 4,
            "byteOffset": 0,
            "componentType": 5126,
            "count": 2077,
            "max": [
                1.00000011920928955078125,
                1.0
            ],
            "min": [
                0.0,
                0.0
            ],
            "type": "VEC2"
        },
        {
            "bufferView": 5,
            "byteOffset": 0,
            "componentType": 5126,
            "count": 2077,
            "max": [
                0.999976098537445068359375,
                0.999976098537445068359375,
                0.999975860118865966796875,
                1.0
            ],
            "min": [
                0.0001291999942623078823089599609375,
                0.0001291999942623078823089599609375,
                0.000129199979710392653942108154296875,
                1.0
            ],
            "type": "VEC4"
        },
        {
            "bufferView": 6,
            "byteOffset": 0,
            "componentType": 5123,
            "count": 2077,
            "max": [
                0,
                0,
                0,
                0
            ],
            "min": [
                0,
                0,
                0,
                0
            ],
            "type": "VEC4"
        },
        {
            "bufferView": 7,
            "byteOffset": 0,
            "componentType": 5126,
            "count": 2077,
            "max": [
                1.0,
                0.0,
                0.0,
                0.0
            ],
            "min": [
                1.0,
                0.0,
                0.0,
                0.0
            ],
            "type": "VEC4"
        },
        {
            "bufferView": 8,
            "byteOffset": 0,
            "componentType": 5126,
            "count": 1,
            "max": [
                0.00999999977648258209228515625,
                0.0,
                0.0,
                0.0,
                0.0,
                -0.0000000004371138728753720670283655636012554168701171875,
                0.00999999977648258209228515625,
                0.0,
                0.0,
                -0.00999999977648258209228515625,
                -0.0000000004371138728753720670283655636012554168701171875,
                0.0,
                0.0,
                0.0,
                0.0,
                1.0
            ],
            "min": [
                0.00999999977648258209228515625,
                0.0,
                0.0,
                0.0,
                0.0,
                -0.0000000004371138728753720670283655636012554168701171875,
                0.00999999977648258209228515625,
                0.0,
                0.0,
                -0.00999999977648258209228515625,
                -0.0000000004371138728753720670283655636012554168701171875,
                0.0,
                0.0,
                0.0,
                0.0,
                1.0
            ],
            "type": "MAT4"
        }
    ],
    "bufferViews": [
        {
            "buffer": 0,
            "byteOffset": 0,
            "byteLength": 23040,
            "target": 34963
        },
        {
            "buffer": 0,
            "byteOffset": 23040,
            "byteLength": 24924,
            "byteStride": 12,
            "target": 34962
        },
        {
            "buffer": 0,
            "byteOffset": 47964,
            "byteLength": 24924,
            "byteStride": 12,
            "target": 34962
        },
        {
            "buffer": 0,
            "byteOffset": 72888,
            "byteLength": 33232,
            "byteStride": 16,
            "target": 34962
        },
        {
            "buffer": 0,
            "byteOffset": 106120,
            "byteLength": 16616,
            "byteStride": 8,
            "target": 34962
        },
        {
            "buffer": 0,
            "byteOffset": 122736,
            "byteLength": 33232,
            "byteStride": 16,
            "target": 34962
        },
        {
            "buffer": 0,
            "byteOffset": 155968,
            "byteLength": 16616,
            "byteStride": 8,
            "target": 34962
        },
        {
            "buffer": 0,
            "byteOffset": 172584,
            "byteLength": 33232,
            "byteStride": 16,
            "target": 34962
        },
        {
            "buffer": 0,
            "byteOffset": 205816,
            "byteLength": 64
        }
    ],
    "buffers": [
        {
            "byteLength": 205880,
            "uri": "Sphere0.bin"
        }
    ]
}
