{
    "asset": {
        "generator": "Noesis",
        "version": "2.0"
    },
    "scene": 0,
    "scenes": [
        {
            "nodes": [
                0,
                1
            ]
        }
    ],
    "nodes": [
        {
            "name": "Teapot_noesis_meshnode_0000",
            "translation": [
                0.0,
                0.0,
                0.0
            ],
            "rotation": [
                0.0,
                0.0,
                0.0,
                1.0
            ],
            "scale": [
                1.0,
                1.0,
                1.0
            ],
            "mesh": 0,
            "skin": 0
        },
        {
            "name": "Teapot",
            "translation": [
                0.0,
                0.0,
                0.0
            ],
            "rotation": [
                -0.707106769084930419921875,
                0.0,
                0.0,
                0.707106769084930419921875
            ],
            "scale": [
                100.0,
                100.0,
                100.0
            ]
        }
    ],
    "meshes": [
        {
            "primitives": [
                {
                    "attributes": {
                        "POSITION": 1,
                        "NORMAL": 2,
                        "TANGENT": 3,
                        "TEXCOORD_0": 4,
                        "COLOR_0": 5,
                        "JOINTS_0": 6,
                        "WEIGHTS_0": 7
                    },
                    "indices": 0,
                    "material": 0,
                    "mode": 4
                }
            ],
            "name": "Teapot"
        }
    ],
    "skins": [
        {
            "inverseBindMatrices": 8,
            "joints": [
                1
            ]
        }
    ],
    "materials": [
        {
            "pbrMetallicRoughness": {
                "metallicFactor": 0.0
            },
            "name": "RandomMaterial.015"
        }
    ],
    "accessors": [
        {
            "bufferView": 0,
            "byteOffset": 0,
            "componentType": 5123,
            "count": 2976,
            "max": [
                2975
            ],
            "min": [
                0
            ],
            "type": "SCALAR"
        },
        {
            "bufferView": 1,
            "byteOffset": 0,
            "componentType": 5126,
            "count": 2976,
            "max": [
                401.7578125,
                196.875,
                250.0
            ],
            "min": [
                -401.7578125,
                -196.875,
                -250.0
            ],
            "type": "VEC3"
        },
        {
            "bufferView": 2,
            "byteOffset": 0,
            "componentType": 5126,
            "count": 2976,
            "max": [
                0.999599456787109375,
                1.0,
                0.999850451946258544921875
            ],
            "min": [
                -0.997804164886474609375,
                -1.0,
                -0.9998924732208251953125
            ],
            "type": "VEC3"
        },
        {
            "bufferView": 3,
            "byteOffset": 0,
            "componentType": 5126,
            "count": 2976,
            "max": [
                0.99991452693939208984375,
                0.99566256999969482421875,
                0.999970018863677978515625,
                -1.0
            ],
            "min": [
                -0.99991452693939208984375,
                -0.995290935039520263671875,
                -0.999946117401123046875,
                -1.0
            ],
            "type": "VEC4"
        },
        {
            "bufferView": 4,
            "byteOffset": 0,
            "componentType": 5126,
            "count": 2976,
            "max": [
                2.0,
                1.0
            ],
            "min": [
                0.0,
                -1.0
            ],
            "type": "VEC2"
        },
        {
            "bufferView": 5,
            "byteOffset": 0,
            "componentType": 5126,
            "count": 2976,
            "max": [
                1.0,
                1.0,
                1.0,
                1.0
            ],
            "min": [
                0.0,
                0.0,
                0.0,
                1.0
            ],
            "type": "VEC4"
        },
        {
            "bufferView": 6,
            "byteOffset": 0,
            "componentType": 5123,
            "count": 2976,
            "max": [
                0,
                0,
                0,
                0
            ],
            "min": [
                0,
                0,
                0,
                0
            ],
            "type": "VEC4"
        },
        {
            "bufferView": 7,
            "byteOffset": 0,
            "componentType": 5126,
            "count": 2976,
            "max": [
                1.0,
                0.0,
                0.0,
                0.0
            ],
            "min": [
                1.0,
                0.0,
                0.0,
                0.0
            ],
            "type": "VEC4"
        },
        {
            "bufferView": 8,
            "byteOffset": 0,
            "componentType": 5126,
            "count": 1,
            "max": [
                0.00999999977648258209228515625,
                0.0,
                0.0,
                0.0,
                0.0,
                -0.0000000004371138728753720670283655636012554168701171875,
                0.00999999977648258209228515625,
                0.0,
                0.0,
                -0.00999999977648258209228515625,
                -0.0000000004371138728753720670283655636012554168701171875,
                0.0,
                0.0,
                0.0,
                0.0,
                1.0
            ],
            "min": [
                0.00999999977648258209228515625,
                0.0,
                0.0,
                0.0,
                0.0,
                -0.0000000004371138728753720670283655636012554168701171875,
                0.00999999977648258209228515625,
                0.0,
                0.0,
                -0.00999999977648258209228515625,
                -0.0000000004371138728753720670283655636012554168701171875,
                0.0,
                0.0,
                0.0,
                0.0,
                1.0
            ],
            "type": "MAT4"
        }
    ],
    "bufferViews": [
        {
            "buffer": 0,
            "byteOffset": 0,
            "byteLength": 5952,
            "target": 34963
        },
        {
            "buffer": 0,
            "byteOffset": 5952,
            "byteLength": 35712,
            "byteStride": 12,
            "target": 34962
        },
        {
            "buffer": 0,
            "byteOffset": 41664,
            "byteLength": 35712,
            "byteStride": 12,
            "target": 34962
        },
        {
            "buffer": 0,
            "byteOffset": 77376,
            "byteLength": 47616,
            "byteStride": 16,
            "target": 34962
        },
        {
            "buffer": 0,
            "byteOffset": 124992,
            "byteLength": 23808,
            "byteStride": 8,
            "target": 34962
        },
        {
            "buffer": 0,
            "byteOffset": 148800,
            "byteLength": 47616,
            "byteStride": 16,
            "target": 34962
        },
        {
            "buffer": 0,
            "byteOffset": 196416,
            "byteLength": 23808,
            "byteStride": 8,
            "target": 34962
        },
        {
            "buffer": 0,
            "byteOffset": 220224,
            "byteLength": 47616,
            "byteStride": 16,
            "target": 34962
        },
        {
            "buffer": 0,
            "byteOffset": 267840,
            "byteLength": 64
        }
    ],
    "buffers": [
        {
            "byteLength": 267904,
            "uri": "teapot0.bin"
        }
    ]
}
