{
	"asset":{
		"generator":"Khronos glTF Blender I/O v4.2.70",
		"version":"2.0"
	},
	"scene":0,
	"scenes":[
		{
			"extras":{
				"vs":{
					"export_list":[
						{
							"name":"Collection 1.dmx",
							"collection":null,
							"ob_type":"COLLECTION",
							"icon":"GROUP"
						}
					]
				},
				"scatter_properties":{},
				"batch_export":{
					"file_format":6,
					"apply_mods":1,
					"gltf_preset":"NO_PRESET",
					"set_scale":1,
					"prefix":"",
					"directory":"//batchgltf\\",
					"mode":1,
					"suffix":""
				}
			},
			"name":"Scene",
			"nodes":[
				0
			]
		}
	],
	"nodes":[
		{
			"mesh":0,
			"name":"Bunny"
		}
	],
	"materials":[
		{
			"doubleSided":true,
			"name":"RandomPBRMaterial.113",
			"normalTexture":{
				"index":0
			},
			"pbrMetallicRoughness":{
				"baseColorFactor":[
					0.47282636165618896,
					0.15492019057273865,
					0.692836582660675,
					1
				],
				"metallicFactor":0.9370150566101074,
				"roughnessFactor":0.38502588868141174
			}
		}
	],
	"meshes":[
		{
			"name":"bunny",
			"primitives":[
				{
					"attributes":{
						"POSITION":0,
						"NORMAL":1,
						"TEXCOORD_0":2
					},
					"indices":3,
					"material":0
				}
			]
		}
	],
	"textures":[
		{
			"sampler":0,
			"source":0
		}
	],
	"images":[
		{
			"mimeType":"image/png",
			"name":"Bunny_NormalMap",
			"uri":"../textures/Bunny_NormalMap.png"
		}
	],
	"accessors":[
		{
			"bufferView":0,
			"componentType":5126,
			"count":67214,
			"max":[
				2,
				1.9824609756469727,
				1.5500845909118652
			],
			"min":[
				-2,
				-1.9824609756469727,
				-1.5500845909118652
			],
			"type":"VEC3"
		},
		{
			"bufferView":1,
			"componentType":5126,
			"count":67214,
			"type":"VEC3"
		},
		{
			"bufferView":2,
			"componentType":5126,
			"count":67214,
			"type":"VEC2"
		},
		{
			"bufferView":3,
			"componentType":5125,
			"count":208890,
			"type":"SCALAR"
		}
	],
	"bufferViews":[
		{
			"buffer":0,
			"byteLength":806568,
			"byteOffset":0,
			"target":34962
		},
		{
			"buffer":0,
			"byteLength":806568,
			"byteOffset":806568,
			"target":34962
		},
		{
			"buffer":0,
			"byteLength":537712,
			"byteOffset":1613136,
			"target":34962
		},
		{
			"buffer":0,
			"byteLength":835560,
			"byteOffset":2150848,
			"target":34963
		}
	],
	"samplers":[
		{
			"magFilter":9729,
			"minFilter":9987
		}
	],
	"buffers":[
		{
			"byteLength":2986408,
			"uri":"Bunny.bin"
		}
	]
}
