{
	"asset":{
		"generator":"Khronos glTF Blender I/O v4.2.70",
		"version":"2.0"
	},
	"scene":0,
	"scenes":[
		{
			"extras":{
				"vs":{
					"export_list":[
						{
							"name":"Collection 1.dmx",
							"collection":null,
							"ob_type":"COLLECTION",
							"icon":"GROUP"
						}
					]
				},
				"scatter_properties":{},
				"batch_export":{
					"file_format":6,
					"apply_mods":1,
					"gltf_preset":"NO_PRESET",
					"set_scale":1,
					"prefix":"",
					"directory":"//batchgltf\\",
					"mode":1,
					"suffix":""
				}
			},
			"name":"Scene",
			"nodes":[
				0
			]
		}
	],
	"nodes":[
		{
			"mesh":0,
			"name":"Dragon"
		}
	],
	"materials":[
		{
			"doubleSided":true,
			"name":"RandomPBRMaterial.117",
			"normalTexture":{
				"index":0
			},
			"pbrMetallicRoughness":{
				"baseColorFactor":[
					0.5889157652854919,
					0.6093897223472595,
					0.3763943016529083,
					1
				],
				"metallicFactor":0.2667999565601349,
				"roughnessFactor":0.4354249835014343
			}
		}
	],
	"meshes":[
		{
			"name":"dragon",
			"primitives":[
				{
					"attributes":{
						"POSITION":0,
						"NORMAL":1,
						"TEXCOORD_0":2
					},
					"indices":3,
					"material":0
				}
			]
		}
	],
	"textures":[
		{
			"sampler":0,
			"source":0
		}
	],
	"images":[
		{
			"mimeType":"image/png",
			"name":"Dragon_NormalMap",
			"uri":"../textures/Dragon_NormalMap.png"
		}
	],
	"accessors":[
		{
			"bufferView":0,
			"componentType":5126,
			"count":130140,
			"max":[
				2,
				1.4105751514434814,
				0.8944045305252075
			],
			"min":[
				-2,
				-1.4105751514434814,
				-0.8944043517112732
			],
			"type":"VEC3"
		},
		{
			"bufferView":1,
			"componentType":5126,
			"count":130140,
			"type":"VEC3"
		},
		{
			"bufferView":2,
			"componentType":5126,
			"count":130140,
			"type":"VEC2"
		},
		{
			"bufferView":3,
			"componentType":5125,
			"count":300000,
			"type":"SCALAR"
		}
	],
	"bufferViews":[
		{
			"buffer":0,
			"byteLength":1561680,
			"byteOffset":0,
			"target":34962
		},
		{
			"buffer":0,
			"byteLength":1561680,
			"byteOffset":1561680,
			"target":34962
		},
		{
			"buffer":0,
			"byteLength":1041120,
			"byteOffset":3123360,
			"target":34962
		},
		{
			"buffer":0,
			"byteLength":1200000,
			"byteOffset":4164480,
			"target":34963
		}
	],
	"samplers":[
		{
			"magFilter":9729,
			"minFilter":9987
		}
	],
	"buffers":[
		{
			"byteLength":5364480,
			"uri":"Dragon.bin"
		}
	]
}
