{
	"asset":{
		"generator":"Khronos glTF Blender I/O v4.2.70",
		"version":"2.0"
	},
	"scene":0,
	"scenes":[
		{
			"extras":{
				"vs":{
					"export_list":[
						{
							"name":"Collection 1.dmx",
							"collection":null,
							"ob_type":"COLLECTION",
							"icon":"GROUP"
						}
					]
				},
				"scatter_properties":{},
				"batch_export":{
					"file_format":6,
					"apply_mods":1,
					"gltf_preset":"NO_PRESET",
					"set_scale":1,
					"prefix":"",
					"directory":"//batchgltf\\",
					"mode":1,
					"suffix":""
				}
			},
			"name":"Scene",
			"nodes":[
				0
			]
		}
	],
	"nodes":[
		{
			"extras":{
				"vs":{}
			},
			"mesh":0,
			"name":"Spoon"
		}
	],
	"materials":[
		{
			"doubleSided":true,
			"name":"RandomPBRMaterial.125",
			"normalTexture":{
				"index":0
			},
			"pbrMetallicRoughness":{
				"baseColorFactor":[
					0.5327684283256531,
					0.49739909172058105,
					0.11963625252246857,
					1
				],
				"metallicFactor":0.9716561436653137,
				"roughnessFactor":0.9868447780609131
			}
		}
	],
	"meshes":[
		{
			"name":"Teapot",
			"primitives":[
				{
					"attributes":{
						"POSITION":0,
						"NORMAL":1,
						"TEXCOORD_0":2
					},
					"indices":3,
					"material":0
				}
			]
		}
	],
	"textures":[
		{
			"sampler":0,
			"source":0
		}
	],
	"images":[
		{
			"mimeType":"image/png",
			"name":"Spoon_NormalMap",
			"uri":"../textures/Spoon_NormalMap.png"
		}
	],
	"accessors":[
		{
			"bufferView":0,
			"componentType":5126,
			"count":14376,
			"max":[
				0.13199466466903687,
				0.07051144540309906,
				1
			],
			"min":[
				-0.13199466466903687,
				-0.08452390134334564,
				-0.21462588012218475
			],
			"type":"VEC3"
		},
		{
			"bufferView":1,
			"componentType":5126,
			"count":14376,
			"type":"VEC3"
		},
		{
			"bufferView":2,
			"componentType":5126,
			"count":14376,
			"type":"VEC2"
		},
		{
			"bufferView":3,
			"componentType":5123,
			"count":21528,
			"type":"SCALAR"
		}
	],
	"bufferViews":[
		{
			"buffer":0,
			"byteLength":172512,
			"byteOffset":0,
			"target":34962
		},
		{
			"buffer":0,
			"byteLength":172512,
			"byteOffset":172512,
			"target":34962
		},
		{
			"buffer":0,
			"byteLength":115008,
			"byteOffset":345024,
			"target":34962
		},
		{
			"buffer":0,
			"byteLength":43056,
			"byteOffset":460032,
			"target":34963
		}
	],
	"samplers":[
		{
			"magFilter":9729,
			"minFilter":9987
		}
	],
	"buffers":[
		{
			"byteLength":503088,
			"uri":"Spoon.bin"
		}
	]
}
