{
	"asset":{
		"generator":"Khronos glTF Blender I/O v4.2.70",
		"version":"2.0"
	},
	"scene":0,
	"scenes":[
		{
			"extras":{
				"vs":{
					"export_list":[
						{
							"name":"Collection 1.dmx",
							"collection":null,
							"ob_type":"COLLECTION",
							"icon":"GROUP"
						}
					]
				},
				"scatter_properties":{},
				"batch_export":{
					"file_format":6,
					"apply_mods":1,
					"gltf_preset":"NO_PRESET",
					"set_scale":1,
					"prefix":"",
					"directory":"//batchgltf\\",
					"mode":1,
					"suffix":""
				}
			},
			"name":"Scene",
			"nodes":[
				0
			]
		}
	],
	"nodes":[
		{
			"mesh":0,
			"name":"Bunny"
		}
	],
	"materials":[
		{
			"doubleSided":true,
			"name":"RandomPBRMaterial.152",
			"normalTexture":{
				"index":0
			},
			"pbrMetallicRoughness":{
				"baseColorFactor":[
					0.7882422804832458,
					0.41131269931793213,
					0.4648875296115875,
					1
				],
				"metallicFactor":0.37948593497276306,
				"roughnessFactor":0.402567982673645
			}
		}
	],
	"meshes":[
		{
			"name":"bunny",
			"primitives":[
				{
					"attributes":{
						"POSITION":0,
						"NORMAL":1,
						"TEXCOORD_0":2,
						"COLOR_0":3,
						"COLOR_1":4
					},
					"indices":5,
					"material":0
				}
			]
		}
	],
	"textures":[
		{
			"sampler":0,
			"source":0
		}
	],
	"images":[
		{
			"mimeType":"image/png",
			"name":"Bunny_NormalMap",
			"uri":"Bunny_NormalMap.png"
		}
	],
	"accessors":[
		{
			"bufferView":0,
			"componentType":5126,
			"count":75192,
			"max":[
				2,
				1.9824609756469727,
				1.5500845909118652
			],
			"min":[
				-2,
				-1.9824609756469727,
				-1.5500845909118652
			],
			"type":"VEC3"
		},
		{
			"bufferView":1,
			"componentType":5126,
			"count":75192,
			"type":"VEC3"
		},
		{
			"bufferView":2,
			"componentType":5126,
			"count":75192,
			"type":"VEC2"
		},
		{
			"bufferView":3,
			"componentType":5121,
			"count":75192,
			"normalized":true,
			"type":"VEC4"
		},
		{
			"bufferView":4,
			"componentType":5126,
			"count":75192,
			"type":"VEC3"
		},
		{
			"bufferView":5,
			"componentType":5125,
			"count":208890,
			"type":"SCALAR"
		}
	],
	"bufferViews":[
		{
			"buffer":0,
			"byteLength":902304,
			"byteOffset":0,
			"target":34962
		},
		{
			"buffer":0,
			"byteLength":902304,
			"byteOffset":902304,
			"target":34962
		},
		{
			"buffer":0,
			"byteLength":601536,
			"byteOffset":1804608,
			"target":34962
		},
		{
			"buffer":0,
			"byteLength":300768,
			"byteOffset":2406144,
			"target":34962
		},
		{
			"buffer":0,
			"byteLength":902304,
			"byteOffset":2706912,
			"target":34962
		},
		{
			"buffer":0,
			"byteLength":835560,
			"byteOffset":3609216,
			"target":34963
		}
	],
	"samplers":[
		{
			"magFilter":9729,
			"minFilter":9987
		}
	],
	"buffers":[
		{
			"byteLength":4444776,
			"uri":"Bunny.bin"
		}
	]
}
