{
	"asset":{
		"generator":"Khronos glTF Blender I/O v4.2.70",
		"version":"2.0"
	},
	"scene":0,
	"scenes":[
		{
			"extras":{
				"vs":{
					"export_list":[
						{
							"name":"Collection 1.dmx",
							"collection":null,
							"ob_type":"COLLECTION",
							"icon":"GROUP"
						}
					]
				},
				"scatter_properties":{},
				"batch_export":{
					"file_format":6,
					"apply_mods":1,
					"gltf_preset":"NO_PRESET",
					"set_scale":1,
					"prefix":"",
					"directory":"//batchgltf\\",
					"mode":1,
					"suffix":""
				}
			},
			"name":"Scene",
			"nodes":[
				0
			]
		}
	],
	"nodes":[
		{
			"extras":{
				"vs":{}
			},
			"mesh":0,
			"name":"Cone"
		}
	],
	"materials":[
		{
			"doubleSided":true,
			"name":"RandomPBRMaterial.153",
			"normalTexture":{
				"index":0
			},
			"pbrMetallicRoughness":{
				"baseColorFactor":[
					0.44960758090019226,
					0.9881162643432617,
					0.9722859859466553,
					1
				],
				"metallicFactor":0.3070670962333679,
				"roughnessFactor":0.9839451313018799
			}
		}
	],
	"meshes":[
		{
			"name":"Cone",
			"primitives":[
				{
					"attributes":{
						"POSITION":0,
						"NORMAL":1,
						"TEXCOORD_0":2,
						"COLOR_0":3,
						"COLOR_1":4,
						"COLOR_2":5,
						"COLOR_3":6,
						"COLOR_4":7,
						"COLOR_5":8,
						"COLOR_6":9,
						"COLOR_7":10,
						"COLOR_8":11,
						"COLOR_9":12,
						"COLOR_10":13,
						"COLOR_11":14,
						"COLOR_12":15
					},
					"indices":16,
					"material":0
				}
			]
		}
	],
	"textures":[
		{
			"sampler":0,
			"source":0
		}
	],
	"images":[
		{
			"mimeType":"image/png",
			"name":"Cone_NormalMap",
			"uri":"Cone_NormalMap.png"
		}
	],
	"accessors":[
		{
			"bufferView":0,
			"componentType":5126,
			"count":411,
			"max":[
				1,
				1,
				1
			],
			"min":[
				-1,
				-1,
				-1
			],
			"type":"VEC3"
		},
		{
			"bufferView":1,
			"componentType":5126,
			"count":411,
			"type":"VEC3"
		},
		{
			"bufferView":2,
			"componentType":5126,
			"count":411,
			"type":"VEC2"
		},
		{
			"bufferView":3,
			"componentType":5121,
			"count":411,
			"normalized":true,
			"type":"VEC4"
		},
		{
			"bufferView":4,
			"componentType":5126,
			"count":411,
			"type":"VEC3"
		},
		{
			"bufferView":5,
			"componentType":5126,
			"count":411,
			"type":"VEC3"
		},
		{
			"bufferView":6,
			"componentType":5126,
			"count":411,
			"type":"VEC3"
		},
		{
			"bufferView":7,
			"componentType":5126,
			"count":411,
			"type":"VEC3"
		},
		{
			"bufferView":8,
			"componentType":5126,
			"count":411,
			"type":"VEC3"
		},
		{
			"bufferView":9,
			"componentType":5126,
			"count":411,
			"type":"VEC3"
		},
		{
			"bufferView":10,
			"componentType":5126,
			"count":411,
			"type":"VEC3"
		},
		{
			"bufferView":11,
			"componentType":5126,
			"count":411,
			"type":"VEC3"
		},
		{
			"bufferView":12,
			"componentType":5126,
			"count":411,
			"type":"VEC3"
		},
		{
			"bufferView":13,
			"componentType":5126,
			"count":411,
			"type":"VEC3"
		},
		{
			"bufferView":14,
			"componentType":5126,
			"count":411,
			"type":"VEC3"
		},
		{
			"bufferView":15,
			"componentType":5126,
			"count":411,
			"type":"VEC3"
		},
		{
			"bufferView":16,
			"componentType":5123,
			"count":570,
			"type":"SCALAR"
		}
	],
	"bufferViews":[
		{
			"buffer":0,
			"byteLength":4932,
			"byteOffset":0,
			"target":34962
		},
		{
			"buffer":0,
			"byteLength":4932,
			"byteOffset":4932,
			"target":34962
		},
		{
			"buffer":0,
			"byteLength":3288,
			"byteOffset":9864,
			"target":34962
		},
		{
			"buffer":0,
			"byteLength":1644,
			"byteOffset":13152,
			"target":34962
		},
		{
			"buffer":0,
			"byteLength":4932,
			"byteOffset":14796,
			"target":34962
		},
		{
			"buffer":0,
			"byteLength":4932,
			"byteOffset":19728,
			"target":34962
		},
		{
			"buffer":0,
			"byteLength":4932,
			"byteOffset":24660,
			"target":34962
		},
		{
			"buffer":0,
			"byteLength":4932,
			"byteOffset":29592,
			"target":34962
		},
		{
			"buffer":0,
			"byteLength":4932,
			"byteOffset":34524,
			"target":34962
		},
		{
			"buffer":0,
			"byteLength":4932,
			"byteOffset":39456,
			"target":34962
		},
		{
			"buffer":0,
			"byteLength":4932,
			"byteOffset":44388,
			"target":34962
		},
		{
			"buffer":0,
			"byteLength":4932,
			"byteOffset":49320,
			"target":34962
		},
		{
			"buffer":0,
			"byteLength":4932,
			"byteOffset":54252,
			"target":34962
		},
		{
			"buffer":0,
			"byteLength":4932,
			"byteOffset":59184,
			"target":34962
		},
		{
			"buffer":0,
			"byteLength":4932,
			"byteOffset":64116,
			"target":34962
		},
		{
			"buffer":0,
			"byteLength":4932,
			"byteOffset":69048,
			"target":34962
		},
		{
			"buffer":0,
			"byteLength":1140,
			"byteOffset":73980,
			"target":34963
		}
	],
	"samplers":[
		{
			"magFilter":9729,
			"minFilter":9987
		}
	],
	"buffers":[
		{
			"byteLength":75120,
			"uri":"Cone.bin"
		}
	]
}
