{
	"asset":{
		"generator":"Khronos glTF Blender I/O v4.2.70",
		"version":"2.0"
	},
	"scene":0,
	"scenes":[
		{
			"extras":{
				"vs":{
					"export_list":[
						{
							"name":"Collection 1.dmx",
							"collection":null,
							"ob_type":"COLLECTION",
							"icon":"GROUP"
						}
					]
				},
				"scatter_properties":{},
				"batch_export":{
					"file_format":6,
					"apply_mods":1,
					"gltf_preset":"NO_PRESET",
					"set_scale":1,
					"prefix":"",
					"directory":"//batchgltf\\",
					"mode":1,
					"suffix":""
				}
			},
			"name":"Scene",
			"nodes":[
				0
			]
		}
	],
	"nodes":[
		{
			"mesh":0,
			"name":"Dragon"
		}
	],
	"materials":[
		{
			"doubleSided":true,
			"name":"RandomPBRMaterial.156",
			"normalTexture":{
				"index":0
			},
			"pbrMetallicRoughness":{
				"baseColorFactor":[
					0.358075886964798,
					0.4952239692211151,
					0.30922025442123413,
					1
				],
				"metallicFactor":0.2333631068468094,
				"roughnessFactor":0.7736071944236755
			}
		}
	],
	"meshes":[
		{
			"name":"dragon",
			"primitives":[
				{
					"attributes":{
						"POSITION":0,
						"NORMAL":1,
						"TEXCOORD_0":2,
						"COLOR_0":3,
						"COLOR_1":4
					},
					"indices":5,
					"material":0
				}
			]
		}
	],
	"textures":[
		{
			"sampler":0,
			"source":0
		}
	],
	"images":[
		{
			"mimeType":"image/png",
			"name":"Dragon_NormalMap",
			"uri":"Dragon_NormalMap.png"
		}
	],
	"accessors":[
		{
			"bufferView":0,
			"componentType":5126,
			"count":172693,
			"max":[
				2,
				1.4105751514434814,
				0.8944045305252075
			],
			"min":[
				-2,
				-1.4105751514434814,
				-0.8944043517112732
			],
			"type":"VEC3"
		},
		{
			"bufferView":1,
			"componentType":5126,
			"count":172693,
			"type":"VEC3"
		},
		{
			"bufferView":2,
			"componentType":5126,
			"count":172693,
			"type":"VEC2"
		},
		{
			"bufferView":3,
			"componentType":5121,
			"count":172693,
			"normalized":true,
			"type":"VEC4"
		},
		{
			"bufferView":4,
			"componentType":5126,
			"count":172693,
			"type":"VEC3"
		},
		{
			"bufferView":5,
			"componentType":5125,
			"count":300000,
			"type":"SCALAR"
		}
	],
	"bufferViews":[
		{
			"buffer":0,
			"byteLength":2072316,
			"byteOffset":0,
			"target":34962
		},
		{
			"buffer":0,
			"byteLength":2072316,
			"byteOffset":2072316,
			"target":34962
		},
		{
			"buffer":0,
			"byteLength":1381544,
			"byteOffset":4144632,
			"target":34962
		},
		{
			"buffer":0,
			"byteLength":690772,
			"byteOffset":5526176,
			"target":34962
		},
		{
			"buffer":0,
			"byteLength":2072316,
			"byteOffset":6216948,
			"target":34962
		},
		{
			"buffer":0,
			"byteLength":1200000,
			"byteOffset":8289264,
			"target":34963
		}
	],
	"samplers":[
		{
			"magFilter":9729,
			"minFilter":9987
		}
	],
	"buffers":[
		{
			"byteLength":9489264,
			"uri":"Dragon.bin"
		}
	]
}
