{
	"asset":{
		"generator":"Khronos glTF Blender I/O v4.2.70",
		"version":"2.0"
	},
	"scene":0,
	"scenes":[
		{
			"extras":{
				"vs":{
					"export_list":[
						{
							"name":"Collection 1.dmx",
							"collection":null,
							"ob_type":"COLLECTION",
							"icon":"GROUP"
						}
					]
				},
				"scatter_properties":{},
				"batch_export":{
					"file_format":6,
					"apply_mods":1,
					"gltf_preset":"NO_PRESET",
					"set_scale":1,
					"prefix":"",
					"directory":"//batchgltf\\",
					"mode":1,
					"suffix":""
				}
			},
			"name":"Scene",
			"nodes":[
				0
			]
		}
	],
	"nodes":[
		{
			"extras":{
				"vs":{},
				"ant_landscape":{}
			},
			"mesh":0,
			"name":"Gear"
		}
	],
	"materials":[
		{
			"doubleSided":true,
			"name":"RandomPBRMaterial.157",
			"normalTexture":{
				"index":0
			},
			"pbrMetallicRoughness":{
				"baseColorFactor":[
					0.8355798125267029,
					0.6733431220054626,
					0.8347431421279907,
					1
				],
				"metallicFactor":0.07761174440383911,
				"roughnessFactor":0.9583967924118042
			}
		}
	],
	"meshes":[
		{
			"extras":{
				"Gear":1,
				"change":0,
				"number_of_teeth":23,
				"radius":1.0499999523162842,
				"addendum":0.10000000149011612,
				"dedendum":0.07999999821186066,
				"base":0.2199999988079071,
				"angle":0.3490658402442932,
				"width":0.20000000298023224,
				"skew":-1.1641532182693481e-10,
				"conangle":1.1641532182693481e-10,
				"crown":0.0
			},
			"name":"Gear.001",
			"primitives":[
				{
					"attributes":{
						"POSITION":0,
						"NORMAL":1,
						"TEXCOORD_0":2,
						"COLOR_0":3,
						"COLOR_1":4,
						"COLOR_2":5,
						"COLOR_3":6
					},
					"indices":7,
					"material":0
				}
			]
		}
	],
	"textures":[
		{
			"sampler":0,
			"source":0
		}
	],
	"images":[
		{
			"mimeType":"image/png",
			"name":"Gear_NormalMap",
			"uri":"Gear_NormalMap.png"
		}
	],
	"accessors":[
		{
			"bufferView":0,
			"componentType":5126,
			"count":92997,
			"max":[
				1.1601966619491577,
				0.21092373132705688,
				1.167105793952942
			],
			"min":[
				-1.1696054935455322,
				-0.212972491979599,
				-1.167105793952942
			],
			"type":"VEC3"
		},
		{
			"bufferView":1,
			"componentType":5126,
			"count":92997,
			"type":"VEC3"
		},
		{
			"bufferView":2,
			"componentType":5126,
			"count":92997,
			"type":"VEC2"
		},
		{
			"bufferView":3,
			"componentType":5121,
			"count":92997,
			"normalized":true,
			"type":"VEC4"
		},
		{
			"bufferView":4,
			"componentType":5126,
			"count":92997,
			"type":"VEC3"
		},
		{
			"bufferView":5,
			"componentType":5126,
			"count":92997,
			"type":"VEC3"
		},
		{
			"bufferView":6,
			"componentType":5126,
			"count":92997,
			"type":"VEC3"
		},
		{
			"bufferView":7,
			"componentType":5125,
			"count":139656,
			"type":"SCALAR"
		}
	],
	"bufferViews":[
		{
			"buffer":0,
			"byteLength":1115964,
			"byteOffset":0,
			"target":34962
		},
		{
			"buffer":0,
			"byteLength":1115964,
			"byteOffset":1115964,
			"target":34962
		},
		{
			"buffer":0,
			"byteLength":743976,
			"byteOffset":2231928,
			"target":34962
		},
		{
			"buffer":0,
			"byteLength":371988,
			"byteOffset":2975904,
			"target":34962
		},
		{
			"buffer":0,
			"byteLength":1115964,
			"byteOffset":3347892,
			"target":34962
		},
		{
			"buffer":0,
			"byteLength":1115964,
			"byteOffset":4463856,
			"target":34962
		},
		{
			"buffer":0,
			"byteLength":1115964,
			"byteOffset":5579820,
			"target":34962
		},
		{
			"buffer":0,
			"byteLength":558624,
			"byteOffset":6695784,
			"target":34963
		}
	],
	"samplers":[
		{
			"magFilter":9729,
			"minFilter":9987
		}
	],
	"buffers":[
		{
			"byteLength":7254408,
			"uri":"Gear.bin"
		}
	]
}
