{
	"asset":{
		"generator":"Khronos glTF Blender I/O v4.2.70",
		"version":"2.0"
	},
	"scene":0,
	"scenes":[
		{
			"extras":{
				"vs":{
					"export_list":[
						{
							"name":"Collection 1.dmx",
							"collection":null,
							"ob_type":"COLLECTION",
							"icon":"GROUP"
						}
					]
				},
				"scatter_properties":{},
				"batch_export":{
					"file_format":6,
					"apply_mods":1,
					"gltf_preset":"NO_PRESET",
					"set_scale":1,
					"prefix":"",
					"directory":"//batchgltf\\",
					"mode":1,
					"suffix":""
				}
			},
			"name":"Scene",
			"nodes":[
				0
			]
		}
	],
	"nodes":[
		{
			"extras":{
				"vs":{}
			},
			"mesh":0,
			"name":"Gem"
		}
	],
	"materials":[
		{
			"doubleSided":true,
			"name":"RandomPBRMaterial.158",
			"normalTexture":{
				"index":0
			},
			"pbrMetallicRoughness":{
				"baseColorFactor":[
					0.7176269888877869,
					0.4582737386226654,
					0.36442556977272034,
					1
				],
				"metallicFactor":0.5169374346733093,
				"roughnessFactor":0.007383429910987616
			}
		}
	],
	"meshes":[
		{
			"extras":{
				"Brilliant":1,
				"change":0,
				"s":84,
				"table_w":0.5614645481109619,
				"crown_h":0.12262992560863495,
				"girdle_t":0.017000000923871994,
				"girdle_real":1,
				"g_real_smooth":0,
				"pavi_d":0.4309999942779541,
				"bezel_f":0.25,
				"pavi_f":0.4000000059604645,
				"culet":0.0,
				"keep_lga":0
			},
			"name":"dmesh.001",
			"primitives":[
				{
					"attributes":{
						"POSITION":0,
						"NORMAL":1,
						"TEXCOORD_0":2,
						"COLOR_0":3,
						"COLOR_1":4,
						"COLOR_2":5,
						"COLOR_3":6
					},
					"indices":7,
					"material":0
				}
			]
		}
	],
	"textures":[
		{
			"sampler":0,
			"source":0
		}
	],
	"images":[
		{
			"mimeType":"image/png",
			"name":"Gem_NormalMap",
			"uri":"Gem_NormalMap.png"
		}
	],
	"accessors":[
		{
			"bufferView":0,
			"componentType":5126,
			"count":9291,
			"max":[
				1,
				0.2792598605155945,
				1
			],
			"min":[
				-1,
				-0.8619999885559082,
				-1
			],
			"type":"VEC3"
		},
		{
			"bufferView":1,
			"componentType":5126,
			"count":9291,
			"type":"VEC3"
		},
		{
			"bufferView":2,
			"componentType":5126,
			"count":9291,
			"type":"VEC2"
		},
		{
			"bufferView":3,
			"componentType":5121,
			"count":9291,
			"normalized":true,
			"type":"VEC4"
		},
		{
			"bufferView":4,
			"componentType":5126,
			"count":9291,
			"type":"VEC3"
		},
		{
			"bufferView":5,
			"componentType":5126,
			"count":9291,
			"type":"VEC3"
		},
		{
			"bufferView":6,
			"componentType":5126,
			"count":9291,
			"type":"VEC3"
		},
		{
			"bufferView":7,
			"componentType":5123,
			"count":15870,
			"type":"SCALAR"
		}
	],
	"bufferViews":[
		{
			"buffer":0,
			"byteLength":111492,
			"byteOffset":0,
			"target":34962
		},
		{
			"buffer":0,
			"byteLength":111492,
			"byteOffset":111492,
			"target":34962
		},
		{
			"buffer":0,
			"byteLength":74328,
			"byteOffset":222984,
			"target":34962
		},
		{
			"buffer":0,
			"byteLength":37164,
			"byteOffset":297312,
			"target":34962
		},
		{
			"buffer":0,
			"byteLength":111492,
			"byteOffset":334476,
			"target":34962
		},
		{
			"buffer":0,
			"byteLength":111492,
			"byteOffset":445968,
			"target":34962
		},
		{
			"buffer":0,
			"byteLength":111492,
			"byteOffset":557460,
			"target":34962
		},
		{
			"buffer":0,
			"byteLength":31740,
			"byteOffset":668952,
			"target":34963
		}
	],
	"samplers":[
		{
			"magFilter":9729,
			"minFilter":9987
		}
	],
	"buffers":[
		{
			"byteLength":700692,
			"uri":"Gem.bin"
		}
	]
}
