{
	"asset":{
		"generator":"Khronos glTF Blender I/O v4.2.70",
		"version":"2.0"
	},
	"scene":0,
	"scenes":[
		{
			"extras":{
				"vs":{
					"export_list":[
						{
							"name":"Collection 1.dmx",
							"collection":null,
							"ob_type":"COLLECTION",
							"icon":"GROUP"
						}
					]
				},
				"scatter_properties":{},
				"batch_export":{
					"file_format":6,
					"apply_mods":1,
					"gltf_preset":"NO_PRESET",
					"set_scale":1,
					"prefix":"",
					"directory":"//batchgltf\\",
					"mode":1,
					"suffix":""
				}
			},
			"name":"Scene",
			"nodes":[
				0
			]
		}
	],
	"nodes":[
		{
			"extras":{
				"vs":{},
				"ant_landscape":{}
			},
			"mesh":0,
			"name":"Roundcube"
		}
	],
	"materials":[
		{
			"doubleSided":true,
			"name":"RandomPBRMaterial.161",
			"normalTexture":{
				"index":0
			},
			"pbrMetallicRoughness":{
				"baseColorFactor":[
					0.602620542049408,
					0.41780126094818115,
					0.5657315850257874,
					1
				],
				"metallicFactor":0.6209617257118225,
				"roughnessFactor":0.6101810932159424
			}
		}
	],
	"meshes":[
		{
			"extras":{
				"Roundcube":1,
				"change":0,
				"radius":0.20000000298023224,
				"size":[
					2.0,
					2.0,
					2.0
				],
				"arc_div":4,
				"lin_div":0.0,
				"div_type":"CORNERS",
				"odd_axis_align":0,
				"no_limit":0
			},
			"name":"Roundcube",
			"primitives":[
				{
					"attributes":{
						"POSITION":0,
						"NORMAL":1,
						"TEXCOORD_0":2,
						"COLOR_0":3,
						"COLOR_1":4,
						"COLOR_2":5,
						"COLOR_3":6
					},
					"indices":7,
					"material":0
				}
			]
		}
	],
	"textures":[
		{
			"sampler":0,
			"source":0
		}
	],
	"images":[
		{
			"mimeType":"image/png",
			"name":"Roundcube_NormalMap",
			"uri":"Roundcube_NormalMap.png"
		}
	],
	"accessors":[
		{
			"bufferView":0,
			"componentType":5126,
			"count":2863,
			"max":[
				1,
				1,
				1
			],
			"min":[
				-1,
				-1,
				-1
			],
			"type":"VEC3"
		},
		{
			"bufferView":1,
			"componentType":5126,
			"count":2863,
			"type":"VEC3"
		},
		{
			"bufferView":2,
			"componentType":5126,
			"count":2863,
			"type":"VEC2"
		},
		{
			"bufferView":3,
			"componentType":5121,
			"count":2863,
			"normalized":true,
			"type":"VEC4"
		},
		{
			"bufferView":4,
			"componentType":5126,
			"count":2863,
			"type":"VEC3"
		},
		{
			"bufferView":5,
			"componentType":5126,
			"count":2863,
			"type":"VEC3"
		},
		{
			"bufferView":6,
			"componentType":5126,
			"count":2863,
			"type":"VEC3"
		},
		{
			"bufferView":7,
			"componentType":5123,
			"count":3600,
			"type":"SCALAR"
		}
	],
	"bufferViews":[
		{
			"buffer":0,
			"byteLength":34356,
			"byteOffset":0,
			"target":34962
		},
		{
			"buffer":0,
			"byteLength":34356,
			"byteOffset":34356,
			"target":34962
		},
		{
			"buffer":0,
			"byteLength":22904,
			"byteOffset":68712,
			"target":34962
		},
		{
			"buffer":0,
			"byteLength":11452,
			"byteOffset":91616,
			"target":34962
		},
		{
			"buffer":0,
			"byteLength":34356,
			"byteOffset":103068,
			"target":34962
		},
		{
			"buffer":0,
			"byteLength":34356,
			"byteOffset":137424,
			"target":34962
		},
		{
			"buffer":0,
			"byteLength":34356,
			"byteOffset":171780,
			"target":34962
		},
		{
			"buffer":0,
			"byteLength":7200,
			"byteOffset":206136,
			"target":34963
		}
	],
	"samplers":[
		{
			"magFilter":9729,
			"minFilter":9987
		}
	],
	"buffers":[
		{
			"byteLength":213336,
			"uri":"Roundcube.bin"
		}
	]
}
