{
	"asset":{
		"generator":"Khronos glTF Blender I/O v4.2.70",
		"version":"2.0"
	},
	"scene":0,
	"scenes":[
		{
			"extras":{
				"vs":{
					"export_list":[
						{
							"name":"Collection 1.dmx",
							"collection":null,
							"ob_type":"COLLECTION",
							"icon":"GROUP"
						}
					]
				},
				"scatter_properties":{},
				"batch_export":{
					"file_format":6,
					"apply_mods":1,
					"gltf_preset":"NO_PRESET",
					"set_scale":1,
					"prefix":"",
					"directory":"//batchgltf\\",
					"mode":1,
					"suffix":""
				}
			},
			"name":"Scene",
			"nodes":[
				0
			]
		}
	],
	"nodes":[
		{
			"extras":{
				"vs":{}
			},
			"mesh":0,
			"name":"Sphere"
		}
	],
	"materials":[
		{
			"doubleSided":true,
			"name":"RandomPBRMaterial.162",
			"normalTexture":{
				"index":0
			},
			"pbrMetallicRoughness":{
				"baseColorFactor":[
					0.45173200964927673,
					0.6832623481750488,
					0.08114998787641525,
					1
				],
				"metallicFactor":0.7208378314971924,
				"roughnessFactor":0.404590904712677
			}
		}
	],
	"meshes":[
		{
			"name":"Sphere",
			"primitives":[
				{
					"attributes":{
						"POSITION":0,
						"NORMAL":1,
						"TEXCOORD_0":2,
						"COLOR_0":3,
						"COLOR_1":4,
						"COLOR_2":5,
						"COLOR_3":6
					},
					"indices":7,
					"material":0
				}
			]
		}
	],
	"textures":[
		{
			"sampler":0,
			"source":0
		}
	],
	"images":[
		{
			"mimeType":"image/png",
			"name":"Sphere_NormalMap",
			"uri":"Sphere_NormalMap.png"
		}
	],
	"accessors":[
		{
			"bufferView":0,
			"componentType":5126,
			"count":7606,
			"max":[
				0.9999997019767761,
				1,
				0.9999994039535522
			],
			"min":[
				-0.9999990463256836,
				-1,
				-0.9999987483024597
			],
			"type":"VEC3"
		},
		{
			"bufferView":1,
			"componentType":5126,
			"count":7606,
			"type":"VEC3"
		},
		{
			"bufferView":2,
			"componentType":5126,
			"count":7606,
			"type":"VEC2"
		},
		{
			"bufferView":3,
			"componentType":5121,
			"count":7606,
			"normalized":true,
			"type":"VEC4"
		},
		{
			"bufferView":4,
			"componentType":5126,
			"count":7606,
			"type":"VEC3"
		},
		{
			"bufferView":5,
			"componentType":5126,
			"count":7606,
			"type":"VEC3"
		},
		{
			"bufferView":6,
			"componentType":5126,
			"count":7606,
			"type":"VEC3"
		},
		{
			"bufferView":7,
			"componentType":5123,
			"count":11520,
			"type":"SCALAR"
		}
	],
	"bufferViews":[
		{
			"buffer":0,
			"byteLength":91272,
			"byteOffset":0,
			"target":34962
		},
		{
			"buffer":0,
			"byteLength":91272,
			"byteOffset":91272,
			"target":34962
		},
		{
			"buffer":0,
			"byteLength":60848,
			"byteOffset":182544,
			"target":34962
		},
		{
			"buffer":0,
			"byteLength":30424,
			"byteOffset":243392,
			"target":34962
		},
		{
			"buffer":0,
			"byteLength":91272,
			"byteOffset":273816,
			"target":34962
		},
		{
			"buffer":0,
			"byteLength":91272,
			"byteOffset":365088,
			"target":34962
		},
		{
			"buffer":0,
			"byteLength":91272,
			"byteOffset":456360,
			"target":34962
		},
		{
			"buffer":0,
			"byteLength":23040,
			"byteOffset":547632,
			"target":34963
		}
	],
	"samplers":[
		{
			"magFilter":9729,
			"minFilter":9987
		}
	],
	"buffers":[
		{
			"byteLength":570672,
			"uri":"Sphere.bin"
		}
	]
}
