{
	"asset":{
		"generator":"Khronos glTF Blender I/O v4.2.70",
		"version":"2.0"
	},
	"scene":0,
	"scenes":[
		{
			"extras":{
				"vs":{
					"export_list":[
						{
							"name":"Collection 1.dmx",
							"collection":null,
							"ob_type":"COLLECTION",
							"icon":"GROUP"
						}
					]
				},
				"scatter_properties":{},
				"batch_export":{
					"file_format":6,
					"apply_mods":1,
					"gltf_preset":"NO_PRESET",
					"set_scale":1,
					"prefix":"",
					"directory":"//batchgltf\\",
					"mode":1,
					"suffix":""
				}
			},
			"name":"Scene",
			"nodes":[
				0
			]
		}
	],
	"nodes":[
		{
			"extras":{
				"vs":{}
			},
			"mesh":0,
			"name":"Spoon"
		}
	],
	"materials":[
		{
			"doubleSided":true,
			"name":"RandomPBRMaterial.164",
			"normalTexture":{
				"index":0
			},
			"pbrMetallicRoughness":{
				"baseColorFactor":[
					0.11516521871089935,
					0.9207211136817932,
					0.34678879380226135,
					1
				],
				"metallicFactor":0.9038267731666565,
				"roughnessFactor":0.2070685476064682
			}
		}
	],
	"meshes":[
		{
			"name":"Teapot",
			"primitives":[
				{
					"attributes":{
						"POSITION":0,
						"NORMAL":1,
						"TEXCOORD_0":2,
						"COLOR_0":3,
						"COLOR_1":4,
						"COLOR_2":5,
						"COLOR_3":6,
						"COLOR_4":7,
						"COLOR_5":8,
						"COLOR_6":9
					},
					"indices":10,
					"material":0
				}
			]
		}
	],
	"textures":[
		{
			"sampler":0,
			"source":0
		}
	],
	"images":[
		{
			"mimeType":"image/png",
			"name":"Spoon_NormalMap",
			"uri":"Spoon_NormalMap.png"
		}
	],
	"accessors":[
		{
			"bufferView":0,
			"componentType":5126,
			"count":14376,
			"max":[
				0.13199466466903687,
				0.07051144540309906,
				1
			],
			"min":[
				-0.13199466466903687,
				-0.08452390134334564,
				-0.21462588012218475
			],
			"type":"VEC3"
		},
		{
			"bufferView":1,
			"componentType":5126,
			"count":14376,
			"type":"VEC3"
		},
		{
			"bufferView":2,
			"componentType":5126,
			"count":14376,
			"type":"VEC2"
		},
		{
			"bufferView":3,
			"componentType":5121,
			"count":14376,
			"normalized":true,
			"type":"VEC4"
		},
		{
			"bufferView":4,
			"componentType":5126,
			"count":14376,
			"type":"VEC3"
		},
		{
			"bufferView":5,
			"componentType":5126,
			"count":14376,
			"type":"VEC3"
		},
		{
			"bufferView":6,
			"componentType":5126,
			"count":14376,
			"type":"VEC3"
		},
		{
			"bufferView":7,
			"componentType":5126,
			"count":14376,
			"type":"VEC3"
		},
		{
			"bufferView":8,
			"componentType":5126,
			"count":14376,
			"type":"VEC3"
		},
		{
			"bufferView":9,
			"componentType":5126,
			"count":14376,
			"type":"VEC3"
		},
		{
			"bufferView":10,
			"componentType":5123,
			"count":21528,
			"type":"SCALAR"
		}
	],
	"bufferViews":[
		{
			"buffer":0,
			"byteLength":172512,
			"byteOffset":0,
			"target":34962
		},
		{
			"buffer":0,
			"byteLength":172512,
			"byteOffset":172512,
			"target":34962
		},
		{
			"buffer":0,
			"byteLength":115008,
			"byteOffset":345024,
			"target":34962
		},
		{
			"buffer":0,
			"byteLength":57504,
			"byteOffset":460032,
			"target":34962
		},
		{
			"buffer":0,
			"byteLength":172512,
			"byteOffset":517536,
			"target":34962
		},
		{
			"buffer":0,
			"byteLength":172512,
			"byteOffset":690048,
			"target":34962
		},
		{
			"buffer":0,
			"byteLength":172512,
			"byteOffset":862560,
			"target":34962
		},
		{
			"buffer":0,
			"byteLength":172512,
			"byteOffset":1035072,
			"target":34962
		},
		{
			"buffer":0,
			"byteLength":172512,
			"byteOffset":1207584,
			"target":34962
		},
		{
			"buffer":0,
			"byteLength":172512,
			"byteOffset":1380096,
			"target":34962
		},
		{
			"buffer":0,
			"byteLength":43056,
			"byteOffset":1552608,
			"target":34963
		}
	],
	"samplers":[
		{
			"magFilter":9729,
			"minFilter":9987
		}
	],
	"buffers":[
		{
			"byteLength":1595664,
			"uri":"Spoon.bin"
		}
	]
}
