{
	"asset":{
		"generator":"Khronos glTF Blender I/O v4.2.70",
		"version":"2.0"
	},
	"scene":0,
	"scenes":[
		{
			"extras":{
				"vs":{
					"export_list":[
						{
							"name":"Collection 1.dmx",
							"collection":null,
							"ob_type":"COLLECTION",
							"icon":"GROUP"
						}
					]
				},
				"scatter_properties":{},
				"batch_export":{
					"file_format":6,
					"apply_mods":1,
					"gltf_preset":"NO_PRESET",
					"set_scale":1,
					"prefix":"",
					"directory":"//batchgltf\\",
					"mode":1,
					"suffix":""
				}
			},
			"name":"Scene",
			"nodes":[
				0
			]
		}
	],
	"nodes":[
		{
			"extras":{
				"vs":{}
			},
			"mesh":0,
			"name":"SuperToroid"
		}
	],
	"materials":[
		{
			"doubleSided":true,
			"name":"RandomPBRMaterial.165",
			"normalTexture":{
				"index":0
			},
			"pbrMetallicRoughness":{
				"baseColorFactor":[
					0.799823522567749,
					0.13848216831684113,
					0.732951283454895,
					1
				],
				"metallicFactor":0.7376928925514221,
				"roughnessFactor":0.12028562277555466
			}
		}
	],
	"meshes":[
		{
			"extras":{
				"SuperToroid":1,
				"change":0,
				"R":1.0,
				"r":0.30000001192092896,
				"u":16,
				"v":8,
				"n1":1.0,
				"n2":1.0,
				"ie":0,
				"edit":0
			},
			"name":"SuperToroid",
			"primitives":[
				{
					"attributes":{
						"POSITION":0,
						"NORMAL":1,
						"TEXCOORD_0":2,
						"COLOR_0":3,
						"COLOR_1":4,
						"COLOR_2":5,
						"COLOR_3":6
					},
					"indices":7,
					"material":0
				}
			]
		}
	],
	"textures":[
		{
			"sampler":0,
			"source":0
		}
	],
	"images":[
		{
			"mimeType":"image/png",
			"name":"SuperToroid_NormalMap",
			"uri":"SuperToroid_NormalMap.png"
		}
	],
	"accessors":[
		{
			"bufferView":0,
			"componentType":5126,
			"count":2045,
			"max":[
				1.2999999523162842,
				0.30000001192092896,
				1.2999999523162842
			],
			"min":[
				-1.2999999523162842,
				-0.30000001192092896,
				-1.2999999523162842
			],
			"type":"VEC3"
		},
		{
			"bufferView":1,
			"componentType":5126,
			"count":2045,
			"type":"VEC3"
		},
		{
			"bufferView":2,
			"componentType":5126,
			"count":2045,
			"type":"VEC2"
		},
		{
			"bufferView":3,
			"componentType":5121,
			"count":2045,
			"normalized":true,
			"type":"VEC4"
		},
		{
			"bufferView":4,
			"componentType":5126,
			"count":2045,
			"type":"VEC3"
		},
		{
			"bufferView":5,
			"componentType":5126,
			"count":2045,
			"type":"VEC3"
		},
		{
			"bufferView":6,
			"componentType":5126,
			"count":2045,
			"type":"VEC3"
		},
		{
			"bufferView":7,
			"componentType":5123,
			"count":3072,
			"type":"SCALAR"
		}
	],
	"bufferViews":[
		{
			"buffer":0,
			"byteLength":24540,
			"byteOffset":0,
			"target":34962
		},
		{
			"buffer":0,
			"byteLength":24540,
			"byteOffset":24540,
			"target":34962
		},
		{
			"buffer":0,
			"byteLength":16360,
			"byteOffset":49080,
			"target":34962
		},
		{
			"buffer":0,
			"byteLength":8180,
			"byteOffset":65440,
			"target":34962
		},
		{
			"buffer":0,
			"byteLength":24540,
			"byteOffset":73620,
			"target":34962
		},
		{
			"buffer":0,
			"byteLength":24540,
			"byteOffset":98160,
			"target":34962
		},
		{
			"buffer":0,
			"byteLength":24540,
			"byteOffset":122700,
			"target":34962
		},
		{
			"buffer":0,
			"byteLength":6144,
			"byteOffset":147240,
			"target":34963
		}
	],
	"samplers":[
		{
			"magFilter":9729,
			"minFilter":9987
		}
	],
	"buffers":[
		{
			"byteLength":153384,
			"uri":"SuperToroid.bin"
		}
	]
}
