{
	"asset":{
		"generator":"Khronos glTF Blender I/O v4.2.70",
		"version":"2.0"
	},
	"scene":0,
	"scenes":[
		{
			"extras":{
				"vs":{
					"export_list":[
						{
							"name":"Collection 1.dmx",
							"collection":null,
							"ob_type":"COLLECTION",
							"icon":"GROUP"
						}
					]
				},
				"scatter_properties":{},
				"batch_export":{
					"file_format":6,
					"apply_mods":1,
					"gltf_preset":"NO_PRESET",
					"set_scale":1,
					"prefix":"",
					"directory":"//batchgltf\\",
					"mode":1,
					"suffix":""
				}
			},
			"name":"Scene",
			"nodes":[
				0
			]
		}
	],
	"nodes":[
		{
			"extras":{
				"vs":{}
			},
			"mesh":0,
			"name":"Suzanne"
		}
	],
	"materials":[
		{
			"doubleSided":true,
			"name":"RandomPBRMaterial.166",
			"normalTexture":{
				"index":0
			},
			"pbrMetallicRoughness":{
				"baseColorFactor":[
					0.9885789752006531,
					0.5802021622657776,
					0.592296838760376,
					1
				],
				"metallicFactor":0.7323369979858398,
				"roughnessFactor":0.835043728351593
			}
		}
	],
	"meshes":[
		{
			"name":"Suzanne",
			"primitives":[
				{
					"attributes":{
						"POSITION":0,
						"NORMAL":1,
						"TEXCOORD_0":2,
						"COLOR_0":3,
						"COLOR_1":4,
						"COLOR_2":5,
						"COLOR_3":6
					},
					"indices":7,
					"material":0
				}
			]
		}
	],
	"textures":[
		{
			"sampler":0,
			"source":0
		}
	],
	"images":[
		{
			"mimeType":"image/png",
			"name":"Suzanne_NormalMap",
			"uri":"Suzanne_NormalMap.png"
		}
	],
	"accessors":[
		{
			"bufferView":0,
			"componentType":5126,
			"count":7739,
			"max":[
				1.3671875,
				0.984375,
				0.8515625
			],
			"min":[
				-1.3671875,
				-0.984375,
				-0.8515625
			],
			"type":"VEC3"
		},
		{
			"bufferView":1,
			"componentType":5126,
			"count":7739,
			"type":"VEC3"
		},
		{
			"bufferView":2,
			"componentType":5126,
			"count":7739,
			"type":"VEC2"
		},
		{
			"bufferView":3,
			"componentType":5121,
			"count":7739,
			"normalized":true,
			"type":"VEC4"
		},
		{
			"bufferView":4,
			"componentType":5126,
			"count":7739,
			"type":"VEC3"
		},
		{
			"bufferView":5,
			"componentType":5126,
			"count":7739,
			"type":"VEC3"
		},
		{
			"bufferView":6,
			"componentType":5126,
			"count":7739,
			"type":"VEC3"
		},
		{
			"bufferView":7,
			"componentType":5123,
			"count":11616,
			"type":"SCALAR"
		}
	],
	"bufferViews":[
		{
			"buffer":0,
			"byteLength":92868,
			"byteOffset":0,
			"target":34962
		},
		{
			"buffer":0,
			"byteLength":92868,
			"byteOffset":92868,
			"target":34962
		},
		{
			"buffer":0,
			"byteLength":61912,
			"byteOffset":185736,
			"target":34962
		},
		{
			"buffer":0,
			"byteLength":30956,
			"byteOffset":247648,
			"target":34962
		},
		{
			"buffer":0,
			"byteLength":92868,
			"byteOffset":278604,
			"target":34962
		},
		{
			"buffer":0,
			"byteLength":92868,
			"byteOffset":371472,
			"target":34962
		},
		{
			"buffer":0,
			"byteLength":92868,
			"byteOffset":464340,
			"target":34962
		},
		{
			"buffer":0,
			"byteLength":23232,
			"byteOffset":557208,
			"target":34963
		}
	],
	"samplers":[
		{
			"magFilter":9729,
			"minFilter":9987
		}
	],
	"buffers":[
		{
			"byteLength":580440,
			"uri":"Suzanne.bin"
		}
	]
}
