{
	"asset":{
		"generator":"Khronos glTF Blender I/O v4.2.70",
		"version":"2.0"
	},
	"scene":0,
	"scenes":[
		{
			"extras":{
				"vs":{
					"export_list":[
						{
							"name":"Collection 1.dmx",
							"collection":null,
							"ob_type":"COLLECTION",
							"icon":"GROUP"
						}
					]
				},
				"scatter_properties":{},
				"batch_export":{
					"file_format":6,
					"apply_mods":1,
					"gltf_preset":"NO_PRESET",
					"set_scale":1,
					"prefix":"",
					"directory":"//batchgltf\\",
					"mode":1,
					"suffix":""
				}
			},
			"name":"Scene",
			"nodes":[
				0
			]
		}
	],
	"nodes":[
		{
			"mesh":0,
			"name":"Teapot"
		}
	],
	"materials":[
		{
			"doubleSided":true,
			"name":"RandomPBRMaterial.167",
			"normalTexture":{
				"index":0
			},
			"pbrMetallicRoughness":{
				"baseColorFactor":[
					0.649066150188446,
					0.31868976354599,
					0.16218668222427368,
					1
				],
				"metallicFactor":0.06849590688943863,
				"roughnessFactor":0.8851419687271118
			}
		}
	],
	"meshes":[
		{
			"name":"teapot.001",
			"primitives":[
				{
					"attributes":{
						"POSITION":0,
						"NORMAL":1,
						"TEXCOORD_0":2,
						"COLOR_0":3,
						"COLOR_1":4
					},
					"indices":5,
					"material":0
				}
			]
		}
	],
	"textures":[
		{
			"sampler":0,
			"source":0
		}
	],
	"images":[
		{
			"mimeType":"image/png",
			"name":"Teapot_NormalMap",
			"uri":"Teapot_NormalMap.png"
		}
	],
	"accessors":[
		{
			"bufferView":0,
			"componentType":5126,
			"count":1196,
			"max":[
				4.017578125,
				1.96875,
				2.5
			],
			"min":[
				-4.017578125,
				-1.96875,
				-2.5
			],
			"type":"VEC3"
		},
		{
			"bufferView":1,
			"componentType":5126,
			"count":1196,
			"type":"VEC3"
		},
		{
			"bufferView":2,
			"componentType":5126,
			"count":1196,
			"type":"VEC2"
		},
		{
			"bufferView":3,
			"componentType":5121,
			"count":1196,
			"normalized":true,
			"type":"VEC4"
		},
		{
			"bufferView":4,
			"componentType":5126,
			"count":1196,
			"type":"VEC3"
		},
		{
			"bufferView":5,
			"componentType":5123,
			"count":2976,
			"type":"SCALAR"
		}
	],
	"bufferViews":[
		{
			"buffer":0,
			"byteLength":14352,
			"byteOffset":0,
			"target":34962
		},
		{
			"buffer":0,
			"byteLength":14352,
			"byteOffset":14352,
			"target":34962
		},
		{
			"buffer":0,
			"byteLength":9568,
			"byteOffset":28704,
			"target":34962
		},
		{
			"buffer":0,
			"byteLength":4784,
			"byteOffset":38272,
			"target":34962
		},
		{
			"buffer":0,
			"byteLength":14352,
			"byteOffset":43056,
			"target":34962
		},
		{
			"buffer":0,
			"byteLength":5952,
			"byteOffset":57408,
			"target":34963
		}
	],
	"samplers":[
		{
			"magFilter":9729,
			"minFilter":9987
		}
	],
	"buffers":[
		{
			"byteLength":63360,
			"uri":"Teapot.bin"
		}
	]
}
