{
	"asset":{
		"generator":"Khronos glTF Blender I/O v4.2.70",
		"version":"2.0"
	},
	"scene":0,
	"scenes":[
		{
			"extras":{
				"vs":{
					"export_list":[
						{
							"name":"Collection 1.dmx",
							"collection":null,
							"ob_type":"COLLECTION",
							"icon":"GROUP"
						}
					]
				},
				"scatter_properties":{},
				"batch_export":{
					"file_format":6,
					"apply_mods":1,
					"gltf_preset":"NO_PRESET",
					"set_scale":1,
					"prefix":"",
					"directory":"//batchgltf\\",
					"mode":1,
					"suffix":""
				}
			},
			"name":"Scene",
			"nodes":[
				0
			]
		}
	],
	"nodes":[
		{
			"extras":{
				"vs":{}
			},
			"mesh":0,
			"name":"Torus"
		}
	],
	"materials":[
		{
			"doubleSided":true,
			"name":"RandomPBRMaterial.168",
			"normalTexture":{
				"index":0
			},
			"pbrMetallicRoughness":{
				"baseColorFactor":[
					0.1399383842945099,
					0.09294595569372177,
					0.9973183870315552,
					1
				],
				"metallicFactor":0.5361889004707336,
				"roughnessFactor":0.664609432220459
			}
		}
	],
	"meshes":[
		{
			"name":"Torus",
			"primitives":[
				{
					"attributes":{
						"POSITION":0,
						"NORMAL":1,
						"TEXCOORD_0":2,
						"COLOR_0":3,
						"COLOR_1":4,
						"COLOR_2":5,
						"COLOR_3":6
					},
					"indices":7,
					"material":0
				}
			]
		}
	],
	"textures":[
		{
			"sampler":0,
			"source":0
		}
	],
	"images":[
		{
			"mimeType":"image/png",
			"name":"Torus_NormalMap",
			"uri":"Torus_NormalMap.png"
		}
	],
	"accessors":[
		{
			"bufferView":0,
			"componentType":5126,
			"count":9214,
			"max":[
				1.25,
				0.25,
				1.25
			],
			"min":[
				-1.25,
				-0.25,
				-1.25
			],
			"type":"VEC3"
		},
		{
			"bufferView":1,
			"componentType":5126,
			"count":9214,
			"type":"VEC3"
		},
		{
			"bufferView":2,
			"componentType":5126,
			"count":9214,
			"type":"VEC2"
		},
		{
			"bufferView":3,
			"componentType":5121,
			"count":9214,
			"normalized":true,
			"type":"VEC4"
		},
		{
			"bufferView":4,
			"componentType":5126,
			"count":9214,
			"type":"VEC3"
		},
		{
			"bufferView":5,
			"componentType":5126,
			"count":9214,
			"type":"VEC3"
		},
		{
			"bufferView":6,
			"componentType":5126,
			"count":9214,
			"type":"VEC3"
		},
		{
			"bufferView":7,
			"componentType":5123,
			"count":13824,
			"type":"SCALAR"
		}
	],
	"bufferViews":[
		{
			"buffer":0,
			"byteLength":110568,
			"byteOffset":0,
			"target":34962
		},
		{
			"buffer":0,
			"byteLength":110568,
			"byteOffset":110568,
			"target":34962
		},
		{
			"buffer":0,
			"byteLength":73712,
			"byteOffset":221136,
			"target":34962
		},
		{
			"buffer":0,
			"byteLength":36856,
			"byteOffset":294848,
			"target":34962
		},
		{
			"buffer":0,
			"byteLength":110568,
			"byteOffset":331704,
			"target":34962
		},
		{
			"buffer":0,
			"byteLength":110568,
			"byteOffset":442272,
			"target":34962
		},
		{
			"buffer":0,
			"byteLength":110568,
			"byteOffset":552840,
			"target":34962
		},
		{
			"buffer":0,
			"byteLength":27648,
			"byteOffset":663408,
			"target":34963
		}
	],
	"samplers":[
		{
			"magFilter":9729,
			"minFilter":9987
		}
	],
	"buffers":[
		{
			"byteLength":691056,
			"uri":"Torus.bin"
		}
	]
}
