{
	"asset":{
		"generator":"Khronos glTF Blender I/O v4.2.70",
		"version":"2.0"
	},
	"scene":0,
	"scenes":[
		{
			"extras":{
				"vs":{
					"export_list":[
						{
							"name":"Collection 1.dmx",
							"collection":null,
							"ob_type":"COLLECTION",
							"icon":"GROUP"
						}
					]
				},
				"scatter_properties":{},
				"batch_export":{
					"file_format":6,
					"apply_mods":1,
					"gltf_preset":"NO_PRESET",
					"set_scale":1,
					"prefix":"",
					"directory":"//batchgltf\\",
					"mode":1,
					"suffix":""
				}
			},
			"name":"Scene",
			"nodes":[
				0
			]
		}
	],
	"nodes":[
		{
			"extras":{
				"vs":{}
			},
			"mesh":0,
			"name":"TorusKnot"
		}
	],
	"materials":[
		{
			"doubleSided":true,
			"name":"RandomPBRMaterial.169",
			"normalTexture":{
				"index":0
			},
			"pbrMetallicRoughness":{
				"baseColorFactor":[
					0.1629847139120102,
					0.7458437085151672,
					0.171269953250885,
					1
				],
				"metallicFactor":0.5733945369720459,
				"roughnessFactor":0.47221988439559937
			}
		}
	],
	"meshes":[
		{
			"extras":{
				"TorusKnot":1,
				"change":0,
				"resolution":80,
				"objecttype":1
			},
			"name":"TorusKnot",
			"primitives":[
				{
					"attributes":{
						"POSITION":0,
						"NORMAL":1,
						"TEXCOORD_0":2,
						"COLOR_0":3,
						"COLOR_1":4,
						"COLOR_2":5,
						"COLOR_3":6,
						"COLOR_4":7
					},
					"indices":8,
					"material":0
				}
			]
		}
	],
	"textures":[
		{
			"sampler":0,
			"source":0
		}
	],
	"images":[
		{
			"mimeType":"image/png",
			"name":"TorusKnot_NormalMap",
			"uri":"TorusKnot_NormalMap.png"
		}
	],
	"accessors":[
		{
			"bufferView":0,
			"componentType":5126,
			"count":10240,
			"max":[
				2.5461153984069824,
				1.484774112701416,
				3.2030553817749023
			],
			"min":[
				-3.498255729675293,
				-1.4793550968170166,
				-3.202956199645996
			],
			"type":"VEC3"
		},
		{
			"bufferView":1,
			"componentType":5126,
			"count":10240,
			"type":"VEC3"
		},
		{
			"bufferView":2,
			"componentType":5126,
			"count":10240,
			"type":"VEC2"
		},
		{
			"bufferView":3,
			"componentType":5121,
			"count":10240,
			"normalized":true,
			"type":"VEC4"
		},
		{
			"bufferView":4,
			"componentType":5126,
			"count":10240,
			"type":"VEC3"
		},
		{
			"bufferView":5,
			"componentType":5126,
			"count":10240,
			"type":"VEC3"
		},
		{
			"bufferView":6,
			"componentType":5126,
			"count":10240,
			"type":"VEC3"
		},
		{
			"bufferView":7,
			"componentType":5126,
			"count":10240,
			"type":"VEC3"
		},
		{
			"bufferView":8,
			"componentType":5123,
			"count":15360,
			"type":"SCALAR"
		}
	],
	"bufferViews":[
		{
			"buffer":0,
			"byteLength":122880,
			"byteOffset":0,
			"target":34962
		},
		{
			"buffer":0,
			"byteLength":122880,
			"byteOffset":122880,
			"target":34962
		},
		{
			"buffer":0,
			"byteLength":81920,
			"byteOffset":245760,
			"target":34962
		},
		{
			"buffer":0,
			"byteLength":40960,
			"byteOffset":327680,
			"target":34962
		},
		{
			"buffer":0,
			"byteLength":122880,
			"byteOffset":368640,
			"target":34962
		},
		{
			"buffer":0,
			"byteLength":122880,
			"byteOffset":491520,
			"target":34962
		},
		{
			"buffer":0,
			"byteLength":122880,
			"byteOffset":614400,
			"target":34962
		},
		{
			"buffer":0,
			"byteLength":122880,
			"byteOffset":737280,
			"target":34962
		},
		{
			"buffer":0,
			"byteLength":30720,
			"byteOffset":860160,
			"target":34963
		}
	],
	"samplers":[
		{
			"magFilter":9729,
			"minFilter":9987
		}
	],
	"buffers":[
		{
			"byteLength":890880,
			"uri":"TorusKnot.bin"
		}
	]
}
